<svg fill="none" height="44" viewBox="0 0 44 44" width="44" xmlns="http://www.w3.org/2000/svg">
    <path
        d="M7.33335 27.4993C6.32502 27.4993 5.46183 27.1403 4.74377 26.4223C4.02571 25.7042 3.66669 24.841 3.66669 23.8327V7.33268C3.66669 6.32435 4.02571 5.46115 4.74377 4.7431C5.46183 4.02504 6.32502 3.66602 7.33335 3.66602H23.8334C24.8417 3.66602 25.7049 4.02504 26.4229 4.7431C27.141 5.46115 27.5 6.32435 27.5 7.33268V23.8327C27.5 24.841 27.141 25.7042 26.4229 26.4223C25.7049 27.1403 24.8417 27.4993 23.8334 27.4993H7.33335ZM7.33335 23.8327H23.8334V7.33268H7.33335V23.8327ZM14.6667 20.6243L12.4667 17.5993L9.16669 21.9993H22L17.7834 16.4993L14.6667 20.6243ZM31.1667 40.3327C29.6389 40.3327 28.3403 39.798 27.2709 38.7285C26.2014 37.6591 25.6667 36.3605 25.6667 34.8327C25.6667 33.3049 26.2014 32.0063 27.2709 30.9368C28.3403 29.8674 29.6389 29.3327 31.1667 29.3327C31.5028 29.3327 31.816 29.3632 32.1063 29.4243C32.3965 29.4855 32.6945 29.5618 33 29.6535V20.166H40.3334V23.8327H36.6667V34.8327C36.6667 36.3605 36.132 37.6591 35.0625 38.7285C33.9931 39.798 32.6945 40.3327 31.1667 40.3327Z"
        fill="#008CFF" />
</svg>
