<svg fill="none" height="44" viewBox="0 0 44 44" width="44" xmlns="http://www.w3.org/2000/svg">
    <path
        d="M25.6666 18.1507V15.034C26.675 14.6062 27.7062 14.2854 28.7604 14.0715C29.8146 13.8576 30.9222 13.7507 32.0833 13.7507C32.8778 13.7507 33.6569 13.8118 34.4208 13.934C35.1847 14.0562 35.9333 14.209 36.6666 14.3923V17.3257C35.9333 17.0507 35.1923 16.8444 34.4437 16.7069C33.6951 16.5694 32.9083 16.5007 32.0833 16.5007C30.9222 16.5007 29.8069 16.6458 28.7375 16.9361C27.668 17.2263 26.6444 17.6312 25.6666 18.1507ZM25.6666 28.234V25.1173C26.675 24.6895 27.7062 24.3687 28.7604 24.1548C29.8146 23.9409 30.9222 23.834 32.0833 23.834C32.8778 23.834 33.6569 23.8951 34.4208 24.0173C35.1847 24.1395 35.9333 24.2923 36.6666 24.4757V27.409C35.9333 27.134 35.1923 26.9277 34.4437 26.7902C33.6951 26.6527 32.9083 26.584 32.0833 26.584C30.9222 26.584 29.8069 26.7215 28.7375 26.9965C27.668 27.2715 26.6444 27.684 25.6666 28.234ZM25.6666 23.1923V20.0757C26.675 19.6479 27.7062 19.327 28.7604 19.1132C29.8146 18.8993 30.9222 18.7923 32.0833 18.7923C32.8778 18.7923 33.6569 18.8534 34.4208 18.9757C35.1847 19.0979 35.9333 19.2507 36.6666 19.434V22.3673C35.9333 22.0923 35.1923 21.8861 34.4437 21.7486C33.6951 21.6111 32.9083 21.5423 32.0833 21.5423C30.9222 21.5423 29.8069 21.6875 28.7375 21.9777C27.668 22.268 26.6444 22.6729 25.6666 23.1923ZM11.9166 29.334C13.3528 29.334 14.7507 29.4944 16.1104 29.8152C17.4701 30.1361 18.8222 30.6173 20.1666 31.259V13.2007C18.9139 12.4673 17.5847 11.9173 16.1791 11.5507C14.7736 11.184 13.3528 11.0007 11.9166 11.0007C10.8166 11.0007 9.72428 11.1076 8.63956 11.3215C7.55484 11.5354 6.50831 11.8562 5.49998 12.284V30.434C6.56942 30.0673 7.63123 29.7923 8.6854 29.609C9.73956 29.4257 10.8166 29.334 11.9166 29.334ZM23.8333 31.259C25.1778 30.6173 26.5298 30.1361 27.8896 29.8152C29.2493 29.4944 30.6472 29.334 32.0833 29.334C33.1833 29.334 34.2604 29.4257 35.3146 29.609C36.3687 29.7923 37.4305 30.0673 38.5 30.434V12.284C37.4916 11.8562 36.4451 11.5354 35.3604 11.3215C34.2757 11.1076 33.1833 11.0007 32.0833 11.0007C30.6472 11.0007 29.2264 11.184 27.8208 11.5507C26.4153 11.9173 25.0861 12.4673 23.8333 13.2007V31.259ZM22 36.6673C20.5333 35.5062 18.9444 34.6048 17.2333 33.9632C15.5222 33.3215 13.75 33.0007 11.9166 33.0007C10.6333 33.0007 9.3729 33.1687 8.1354 33.5048C6.8979 33.8409 5.71387 34.3145 4.58331 34.9257C3.94165 35.2618 3.3229 35.2465 2.72706 34.8798C2.13123 34.5132 1.83331 33.9784 1.83331 33.2757V11.184C1.83331 10.8479 1.91734 10.527 2.0854 10.2215C2.25345 9.91593 2.50554 9.68676 2.84165 9.53398C4.2472 8.80065 5.71387 8.25065 7.24165 7.88398C8.76942 7.51732 10.3278 7.33398 11.9166 7.33398C13.6889 7.33398 15.4229 7.56315 17.1187 8.02148C18.8146 8.47982 20.4416 9.16732 22 10.084C23.5583 9.16732 25.1854 8.47982 26.8812 8.02148C28.5771 7.56315 30.3111 7.33398 32.0833 7.33398C33.6722 7.33398 35.2305 7.51732 36.7583 7.88398C38.2861 8.25065 39.7528 8.80065 41.1583 9.53398C41.4944 9.68676 41.7465 9.91593 41.9146 10.2215C42.0826 10.527 42.1666 10.8479 42.1666 11.184V33.2757C42.1666 33.9784 41.8687 34.5132 41.2729 34.8798C40.6771 35.2465 40.0583 35.2618 39.4166 34.9257C38.2861 34.3145 37.1021 33.8409 35.8646 33.5048C34.6271 33.1687 33.3666 33.0007 32.0833 33.0007C30.25 33.0007 28.4778 33.3215 26.7666 33.9632C25.0555 34.6048 23.4666 35.5062 22 36.6673Z"
        fill="#008CFF" />
</svg>
