<svg fill="none" height="44" viewBox="0 0 44 44" width="44" xmlns="http://www.w3.org/2000/svg">
    <path
        d="M9.16667 38.5C8.64722 38.5 8.21181 38.3243 7.86042 37.9729C7.50903 37.6215 7.33333 37.1861 7.33333 36.6667V34.8333H5.5V27.5C5.5 26.9806 5.67569 26.5451 6.02708 26.1938C6.37847 25.8424 6.81389 25.6667 7.33333 25.6667H9.16667V12.8333C9.16667 10.8167 9.88472 9.09028 11.3208 7.65417C12.7569 6.21806 14.4833 5.5 16.5 5.5C18.5167 5.5 20.2431 6.21806 21.6792 7.65417C23.1153 9.09028 23.8333 10.8167 23.8333 12.8333V31.1667C23.8333 32.175 24.1924 33.0382 24.9104 33.7563C25.6285 34.4743 26.4917 34.8333 27.5 34.8333C28.5083 34.8333 29.3715 34.4743 30.0896 33.7563C30.8076 33.0382 31.1667 32.175 31.1667 31.1667V18.3333H29.3333C28.8139 18.3333 28.3785 18.1576 28.0271 17.8063C27.6757 17.4549 27.5 17.0194 27.5 16.5V9.16667H29.3333V7.33333C29.3333 6.81389 29.509 6.37847 29.8604 6.02708C30.2118 5.67569 30.6472 5.5 31.1667 5.5H34.8333C35.3528 5.5 35.7882 5.67569 36.1396 6.02708C36.491 6.37847 36.6667 6.81389 36.6667 7.33333V9.16667H38.5V16.5C38.5 17.0194 38.3243 17.4549 37.9729 17.8063C37.6215 18.1576 37.1861 18.3333 36.6667 18.3333H34.8333V31.1667C34.8333 33.1833 34.1153 34.9097 32.6792 36.3458C31.2431 37.7819 29.5167 38.5 27.5 38.5C25.4833 38.5 23.7569 37.7819 22.3208 36.3458C20.8847 34.9097 20.1667 33.1833 20.1667 31.1667V12.8333C20.1667 11.825 19.8076 10.9618 19.0896 10.2438C18.3715 9.52569 17.5083 9.16667 16.5 9.16667C15.4917 9.16667 14.6285 9.52569 13.9104 10.2438C13.1924 10.9618 12.8333 11.825 12.8333 12.8333V25.6667H14.6667C15.1861 25.6667 15.6215 25.8424 15.9729 26.1938C16.3243 26.5451 16.5 26.9806 16.5 27.5V34.8333H14.6667V36.6667C14.6667 37.1861 14.491 37.6215 14.1396 37.9729C13.7882 38.3243 13.3528 38.5 12.8333 38.5H9.16667Z"
        fill="#008CFF" />
</svg>
