<svg fill="none" height="44" viewBox="0 0 44 44" width="44" xmlns="http://www.w3.org/2000/svg">
    <path
        d="M22 40.3327C17.8139 40.3327 14.3229 38.8966 11.5271 36.0243C8.73123 33.1521 7.33331 29.5771 7.33331 25.2993C7.33331 22.2438 8.5479 18.9209 10.9771 15.3306C13.4062 11.7403 17.0805 7.85213 22 3.66602C26.9194 7.85213 30.5937 11.7403 33.0229 15.3306C35.4521 18.9209 36.6666 22.2438 36.6666 25.2993C36.6666 29.5771 35.2687 33.1521 32.4729 36.0243C29.6771 38.8966 26.1861 40.3327 22 40.3327ZM22 36.666C25.1778 36.666 27.8055 35.5889 29.8833 33.4348C31.9611 31.2806 33 28.5688 33 25.2993C33 23.0688 32.0757 20.548 30.2271 17.7368C28.3785 14.9257 25.6361 11.8549 22 8.52435C18.3639 11.8549 15.6215 14.9257 13.7729 17.7368C11.9243 20.548 11 23.0688 11 25.2993C11 28.5688 12.0389 31.2806 14.1166 33.4348C16.1944 35.5889 18.8222 36.666 22 36.666ZM16.5 32.9993H27.5V29.3327H16.5V32.9993ZM20.1666 27.4993H23.8333V23.8327H27.5V20.166H23.8333V16.4993H20.1666V20.166H16.5V23.8327H20.1666V27.4993Z"
        fill="#008CFF" />
</svg>
