<svg fill="none" height="44" viewBox="0 0 44 44" width="44" xmlns="http://www.w3.org/2000/svg">
    <path
        d="M9.16668 38.5C7.60835 38.5 6.50071 37.8049 5.84376 36.4146C5.18682 35.0243 5.34723 33.7333 6.32501 32.5417L16.5 20.1667V9.16667H14.6667C14.1472 9.16667 13.7118 8.99097 13.3604 8.63958C13.009 8.28819 12.8333 7.85278 12.8333 7.33333C12.8333 6.81389 13.009 6.37847 13.3604 6.02708C13.7118 5.67569 14.1472 5.5 14.6667 5.5H29.3333C29.8528 5.5 30.2882 5.67569 30.6396 6.02708C30.991 6.37847 31.1667 6.81389 31.1667 7.33333C31.1667 7.85278 30.991 8.28819 30.6396 8.63958C30.2882 8.99097 29.8528 9.16667 29.3333 9.16667H27.5V20.1667L37.675 32.5417C38.6528 33.7333 38.8132 35.0243 38.1563 36.4146C37.4993 37.8049 36.3917 38.5 34.8333 38.5H9.16668ZM12.8333 33H31.1667L24.9333 25.6667H19.0667L12.8333 33ZM9.16668 34.8333H34.8333L23.8333 21.45V9.16667H20.1667V21.45L9.16668 34.8333Z"
        fill="#008CFF" />
</svg>
