<svg fill="none" height="78" viewBox="0 0 78 78" width="78" xmlns="http://www.w3.org/2000/svg">
    <path
        d="M34.45 53.95L57.3625 31.0375L52.8125 26.4875L34.45 44.85L25.1875 35.5875L20.6375 40.1375L34.45 53.95ZM39 71.5C34.5042 71.5 30.2792 70.6469 26.325 68.9406C22.3708 67.2344 18.9312 64.9187 16.0062 61.9937C13.0812 59.0687 10.7656 55.6292 9.05937 51.675C7.35312 47.7208 6.5 43.4958 6.5 39C6.5 34.5042 7.35312 30.2792 9.05937 26.325C10.7656 22.3708 13.0812 18.9312 16.0062 16.0062C18.9312 13.0812 22.3708 10.7656 26.325 9.05937C30.2792 7.35312 34.5042 6.5 39 6.5C43.4958 6.5 47.7208 7.35312 51.675 9.05937C55.6292 10.7656 59.0687 13.0812 61.9937 16.0062C64.9187 18.9312 67.2344 22.3708 68.9406 26.325C70.6469 30.2792 71.5 34.5042 71.5 39C71.5 43.4958 70.6469 47.7208 68.9406 51.675C67.2344 55.6292 64.9187 59.0687 61.9937 61.9937C59.0687 64.9187 55.6292 67.2344 51.675 68.9406C47.7208 70.6469 43.4958 71.5 39 71.5ZM39 65C46.2583 65 52.4062 62.4812 57.4437 57.4437C62.4812 52.4062 65 46.2583 65 39C65 31.7417 62.4812 25.5938 57.4437 20.5562C52.4062 15.5187 46.2583 13 39 13C31.7417 13 25.5938 15.5187 20.5562 20.5562C15.5187 25.5938 13 31.7417 13 39C13 46.2583 15.5187 52.4062 20.5562 57.4437C25.5938 62.4812 31.7417 65 39 65Z"
        fill="#008CFF" />
</svg>
