<svg width="28" height="28" viewBox="0 0 28 28" fill="none" xmlns="http://www.w3.org/2000/svg">
<path d="M5.83333 24.5C5.19167 24.5 4.64236 24.2715 4.18542 23.8146C3.72847 23.3576 3.5 22.8083 3.5 22.1667V5.83333C3.5 5.19167 3.72847 4.64236 4.18542 4.18542C4.64236 3.72847 5.19167 3.5 5.83333 3.5H22.1667C22.8083 3.5 23.3576 3.72847 23.8146 4.18542C24.2715 4.64236 24.5 5.19167 24.5 5.83333V22.1667C24.5 22.8083 24.2715 23.3576 23.8146 23.8146C23.3576 24.2715 22.8083 24.5 22.1667 24.5H5.83333ZM7 19.8333H21L16.625 14L13.125 18.6667L10.5 15.1667L7 19.8333ZM9.91667 11.6667C10.4028 11.6667 10.816 11.4965 11.1562 11.1562C11.4965 10.816 11.6667 10.4028 11.6667 9.91667C11.6667 9.43056 11.4965 9.01736 11.1562 8.67708C10.816 8.33681 10.4028 8.16667 9.91667 8.16667C9.43056 8.16667 9.01736 8.33681 8.67708 8.67708C8.33681 9.01736 8.16667 9.43056 8.16667 9.91667C8.16667 10.4028 8.33681 10.816 8.67708 11.1562C9.01736 11.4965 9.43056 11.6667 9.91667 11.6667Z" fill="#008CFF"/>
</svg>
