<svg width="72" height="39" viewBox="0 0 72 39" fill="none" xmlns="http://www.w3.org/2000/svg">
<path d="M43.624 33.7969C43.3115 34.041 42.96 34.207 42.5693 34.2949C42.1787 34.3828 41.7783 34.4268 41.3682 34.4268C39.9131 34.4268 38.6338 34.207 37.5303 33.7676C36.4268 33.3281 35.4648 32.7275 34.6445 31.9658C33.834 31.2041 33.1553 30.3057 32.6084 29.2705C32.0615 28.2451 31.6172 27.1416 31.2754 25.96C30.9434 24.7686 30.6943 23.5381 30.5283 22.2686C30.3721 20.9893 30.2744 19.7197 30.2354 18.46C30.2061 17.2002 30.2207 15.9795 30.2793 14.7979C30.3477 13.6162 30.4355 12.5322 30.543 11.5459C29.9766 12.2686 29.4395 13.1377 28.9316 14.1533C28.4238 15.1689 27.9502 16.2578 27.5107 17.4199C27.0811 18.582 26.6807 19.7783 26.3096 21.0088C25.9385 22.2295 25.6016 23.4209 25.2988 24.583C25.0059 25.7451 24.7422 26.834 24.5078 27.8496C24.2832 28.8652 24.0928 29.7344 23.9365 30.457C23.917 30.5352 23.8926 30.6377 23.8633 30.7646C23.8438 30.8916 23.8047 31.0137 23.7461 31.1309C23.6973 31.248 23.6289 31.3457 23.541 31.4238C23.4531 31.5117 23.3457 31.5557 23.2188 31.5557C23.1016 31.5557 22.9893 31.5166 22.8818 31.4385C22.7744 31.3701 22.6768 31.2822 22.5889 31.1748C22.501 31.0771 22.4229 30.9648 22.3545 30.8379C22.2959 30.7207 22.252 30.6084 22.2227 30.501C21.9297 29.5537 21.71 28.5332 21.5635 27.4395C21.4268 26.3555 21.3291 25.2568 21.2705 24.1436C21.2217 23.0205 21.1973 21.9072 21.1973 20.8037C21.207 19.7002 21.2119 18.6553 21.2119 17.6689C21.2119 16.5752 21.2266 15.4814 21.2559 14.3877C21.2852 13.2939 21.3389 12.2002 21.417 11.1064C21.4463 10.7158 21.4854 10.2813 21.5342 9.80273C21.5928 9.32422 21.7051 8.87988 21.8711 8.46973C22.0371 8.05957 22.2764 7.71777 22.5889 7.44434C22.9014 7.16113 23.3311 7.01953 23.8779 7.01953C24.0146 7.01953 24.127 7.05371 24.2148 7.12207C24.3125 7.18066 24.3613 7.28809 24.3613 7.44434V7.56152C24.2344 8.72363 24.1172 9.86621 24.0098 10.9893C23.9023 12.1025 23.8047 13.2158 23.7168 14.3291C23.6387 15.4424 23.5752 16.5654 23.5264 17.6982C23.4873 18.8213 23.4678 19.9736 23.4678 21.1553C23.4678 22.3076 23.4922 23.4648 23.541 24.627C23.5898 25.7793 23.6729 26.9316 23.79 28.084C24.1514 26.4238 24.5273 24.8027 24.918 23.2207C25.3184 21.6387 25.7725 20.0908 26.2803 18.5771C26.7881 17.0537 27.374 15.5693 28.0381 14.124C28.7021 12.6787 29.4785 11.2627 30.3672 9.87598C30.4453 9.74902 30.543 9.60254 30.6602 9.43652C30.7871 9.26074 30.9238 9.09961 31.0703 8.95312C31.2266 8.79687 31.3877 8.66504 31.5537 8.55762C31.7197 8.4502 31.8906 8.39648 32.0664 8.39648C32.2812 8.39648 32.4473 8.49414 32.5645 8.68945C32.6914 8.88477 32.7793 9.11426 32.8281 9.37793C32.8867 9.63184 32.9209 9.89062 32.9307 10.1543C32.9404 10.418 32.9453 10.623 32.9453 10.7695C32.877 11.6875 32.7939 12.7178 32.6963 13.8604C32.6084 15.0029 32.5498 16.1992 32.5205 17.4492C32.4912 18.6992 32.5059 19.9688 32.5645 21.2578C32.6328 22.5469 32.7842 23.7969 33.0186 25.0078C33.2529 26.209 33.5947 27.3369 34.0439 28.3916C34.4932 29.4561 35.084 30.3838 35.8164 31.1748C36.5586 31.9658 37.457 32.5908 38.5117 33.0498C39.5762 33.5088 40.8408 33.7383 42.3057 33.7383C42.5107 33.7383 42.7207 33.7188 42.9355 33.6797C43.1602 33.6504 43.3701 33.5918 43.5654 33.5039L43.624 33.7969Z" fill="#008CFF"/>
<path d="M10.05 31.45C8.65 31.45 7.39 31.18 6.27 30.64C5.17 30.1 4.3 29.28 3.66 28.18C3.02 27.06 2.7 25.64 2.7 23.92V10H5.58V23.92C5.58 25.84 5.99 27.2 6.81 28C7.63 28.8 8.71 29.2 10.05 29.2C11.41 29.2 12.5 28.8 13.32 28C14.14 27.2 14.55 25.84 14.55 23.92V10H17.43V23.92C17.43 25.64 17.1 27.06 16.44 28.18C15.8 29.28 14.92 30.1 13.8 30.64C12.68 31.18 11.43 31.45 10.05 31.45Z" fill="#008CFF"/>
<path d="M45.05 31.45C43.65 31.45 42.39 31.18 41.27 30.64C40.17 30.1 39.3 29.28 38.66 28.18C38.02 27.06 37.7 25.64 37.7 23.92V10H40.58V23.92C40.58 25.84 40.99 27.2 41.81 28C42.63 28.8 43.71 29.2 45.05 29.2C46.41 29.2 47.5 28.8 48.32 28C49.14 27.2 49.55 25.84 49.55 23.92V10H52.43V23.92C52.43 25.64 52.1 27.06 51.44 28.18C50.8 29.28 49.92 30.1 48.8 30.64C47.68 31.18 46.43 31.45 45.05 31.45ZM63.047 31.45C61.287 31.45 59.807 31.02 58.607 30.16C57.407 29.28 56.557 27.85 56.057 25.87L58.637 24.94C59.337 27.72 60.897 29.11 63.317 29.11C64.437 29.11 65.357 28.83 66.077 28.27C66.797 27.69 67.157 26.97 67.157 26.11C67.157 25.41 66.967 24.82 66.587 24.34C66.207 23.86 65.707 23.45 65.087 23.11C64.467 22.75 63.777 22.41 63.017 22.09C62.277 21.77 61.537 21.43 60.797 21.07C60.057 20.69 59.377 20.25 58.757 19.75C58.137 19.23 57.637 18.6 57.257 17.86C56.877 17.12 56.687 16.23 56.687 15.19C56.687 14.59 56.797 13.96 57.017 13.3C57.257 12.64 57.637 12.03 58.157 11.47C58.677 10.91 59.357 10.45 60.197 10.09C61.057 9.73 62.117 9.55 63.377 9.55C65.037 9.55 66.417 9.91 67.517 10.63C68.637 11.33 69.437 12.49 69.917 14.11L67.307 15.04C66.987 14.06 66.457 13.29 65.717 12.73C64.997 12.17 64.087 11.89 62.987 11.89C61.987 11.89 61.167 12.16 60.527 12.7C59.887 13.24 59.567 13.99 59.567 14.95C59.567 15.77 59.817 16.45 60.317 16.99C60.817 17.53 61.467 18 62.267 18.4C63.067 18.8 63.907 19.19 64.787 19.57C65.687 19.95 66.537 20.39 67.337 20.89C68.137 21.39 68.787 22.01 69.287 22.75C69.787 23.49 70.037 24.42 70.037 25.54C70.037 26.16 69.917 26.82 69.677 27.52C69.437 28.2 69.047 28.84 68.507 29.44C67.967 30.04 67.247 30.53 66.347 30.91C65.467 31.27 64.367 31.45 63.047 31.45Z" fill="#008CFF"/>
</svg>
