<svg width="28" height="28" viewBox="0 0 28 28" fill="none" xmlns="http://www.w3.org/2000/svg">
<path d="M2.33301 23.3327V20.066C2.33301 19.4049 2.49829 18.7973 2.82884 18.2431C3.1594 17.6889 3.61634 17.266 4.19967 16.9743C5.36634 16.391 6.57676 15.9438 7.83092 15.6327C9.08509 15.3216 10.3636 15.166 11.6663 15.166C12.1525 15.166 12.6386 15.2 13.1247 15.2681C13.6108 15.3362 14.0969 15.4188 14.583 15.516V17.3535C13.708 17.7813 13.0031 18.3452 12.4684 19.0452C11.9337 19.7452 11.6663 20.6591 11.6663 21.7868V23.3327H2.33301ZM13.9997 23.3327V21.6993C13.9997 21.2327 14.1212 20.8 14.3643 20.4014C14.6073 20.0028 14.9525 19.716 15.3997 19.541C16.0997 19.2493 16.824 19.0306 17.5726 18.8848C18.3212 18.7389 19.0747 18.666 19.833 18.666C20.5913 18.666 21.3448 18.7389 22.0934 18.8848C22.842 19.0306 23.5663 19.2493 24.2663 19.541C24.7136 19.716 25.0587 20.0028 25.3018 20.4014C25.5448 20.8 25.6663 21.2327 25.6663 21.6993V23.3327H13.9997ZM19.833 17.4993C19.0163 17.4993 18.3261 17.2174 17.7622 16.6535C17.1983 16.0896 16.9163 15.3993 16.9163 14.5827C16.9163 13.766 17.1983 13.0757 17.7622 12.5118C18.3261 11.948 19.0163 11.666 19.833 11.666C20.6497 11.666 21.34 11.948 21.9038 12.5118C22.4677 13.0757 22.7497 13.766 22.7497 14.5827C22.7497 15.3993 22.4677 16.0896 21.9038 16.6535C21.34 17.2174 20.6497 17.4993 19.833 17.4993ZM11.6663 13.9993C10.383 13.9993 9.2844 13.5424 8.37051 12.6285C7.45662 11.7146 6.99967 10.616 6.99967 9.33268C6.99967 8.04935 7.45662 6.95074 8.37051 6.03685C9.2844 5.12296 10.383 4.66602 11.6663 4.66602C12.9497 4.66602 14.0483 5.12296 14.9622 6.03685C15.8761 6.95074 16.333 8.04935 16.333 9.33268C16.333 10.616 15.8761 11.7146 14.9622 12.6285C14.0483 13.5424 12.9497 13.9993 11.6663 13.9993Z" fill="#999999"/>
</svg>
