<svg width="28" height="28" viewBox="0 0 28 28" fill="none" xmlns="http://www.w3.org/2000/svg">
<path d="M8.16667 24.5V22.1667H12.8333V18.55C11.8806 18.3361 11.0299 17.9326 10.2812 17.3396C9.53264 16.7465 8.98333 16.0028 8.63333 15.1083C7.175 14.9333 5.95486 14.2965 4.97292 13.1979C3.99097 12.0993 3.5 10.8111 3.5 9.33333V8.16667C3.5 7.525 3.72847 6.97569 4.18542 6.51875C4.64236 6.06181 5.19167 5.83333 5.83333 5.83333H8.16667V3.5H19.8333V5.83333H22.1667C22.8083 5.83333 23.3576 6.06181 23.8146 6.51875C24.2715 6.97569 24.5 7.525 24.5 8.16667V9.33333C24.5 10.8111 24.009 12.0993 23.0271 13.1979C22.0451 14.2965 20.825 14.9333 19.3667 15.1083C19.0167 16.0028 18.4674 16.7465 17.7188 17.3396C16.9701 17.9326 16.1194 18.3361 15.1667 18.55V22.1667H19.8333V24.5H8.16667ZM8.16667 12.6V8.16667H5.83333V9.33333C5.83333 10.0722 6.04722 10.7382 6.475 11.3313C6.90278 11.9243 7.46667 12.3472 8.16667 12.6ZM19.8333 12.6C20.5333 12.3472 21.0972 11.9243 21.525 11.3313C21.9528 10.7382 22.1667 10.0722 22.1667 9.33333V8.16667H19.8333V12.6Z" fill="#999999"/>
</svg>
